<?xml version="1.0" encoding="UTF-8"?>
<svg width="60mm" height="60mm" version="1.1" viewBox="0 0 212.6 212.6" xmlns="http://www.w3.org/2000/svg">

 <g transform="translate(0 -839.76)">
  <flowRoot fill="#000000" font-family="sans-serif" letter-spacing="0px" stroke-width="1px" word-spacing="0px" style="line-height:0.01%" xml:space="preserve">
    <flowRegion><rect x="122.86" y="226.65" width="345.71" height="221.43"/>
    </flowRegion><flowPara font-size="40px" style="line-height:1.25"> </flowPara>
  </flowRoot>
  <g transform="translate(1.4296 20.162)">
   <path id="contorno" d="m173.69 823.62c-2.3856 0.0528-4.6947 0.95588-6.9453 1.7598-2.7912 0.99698-5.5518 2.1819-8.0606 3.7734-0.99614 0.63193-2.7285 2.2637-2.7285 2.2637-1.9306 1.8038-4.7067 4.6534-6.6953 7.293-1.4763 1.9595-3.8457 6.2871-3.8457 6.2871-3.2063 1.1265-5.5348 2.1596-8.4316 3.0176-4.1579 1.2314-8.0542 3.2726-11.906 5.2812-4.4511 2.321-8.779 4.9144-12.898 7.7969-5.0372 3.5247-9.9221 7.3215-14.385 11.568-4.1403 3.9401-7.952 8.2596-11.41 12.826-3.4217 4.5184-6.5408 9.3027-9.1758 14.334-2.7371 5.2262-4.9709 10.738-6.8281 16.348-1.7271 5.2166-2.9603 10.602-3.9824 16.006-0.77333 4.0887-1.41 7.6053-1.6191 12.381-0.031 0.70703 0.87164 2.8093-0.96484 2.5l-4.4648 0.29687s-0.18663-4.3451-1.9688-7.2188c-1.6567-2.6714-4.1173-5.3266-6.3027-7.5606-2.7515-2.8126-6.3503-4.5679-9.9004-6.1152-1.7592-0.76675-3.6537-1.2193-5.5449-1.5234-2.022-0.32512-4.0904-0.45451-6.1328-0.31054-3.2993 0.23258-6.6378 0.74104-9.7461 1.8867-2.3599 0.86984-4.5572 2.2104-6.5801 3.7188-1.8581 1.3855-3.516 3.057-5.0176 4.832-1.7745 2.0976-3.4702 4.3242-4.6602 6.8105-1.0782 2.2526-1.6324 4.7398-2.1699 7.1836-0.50152 2.2799-0.99439 4.6016-0.97657 6.9375 0.019 2.4862 0.51505 4.9503 1.1524 7.3672 0.50845 1.9283 1.4133 4.5326 2.4961 6.627 1.0539 2.0386 2.3358 3.9802 3.8496 5.6953 1.6533 1.8732 3.5441 3.5715 5.6328 4.9258 2.3489 1.523 4.9927 2.5464 7.6152 3.5059 2.0674 0.7564 4.1812 1.4773 6.3613 1.7598 2.3685 0.3069 4.7966 0.22535 7.1641-0.0899 2.7611-0.3674 5.5266-0.99418 8.0957-2.084 2.1074-0.8939 4.0349-2.2098 5.8652-3.5957 1.7293-1.3093 3.3591-2.7793 4.7852-4.4219 1.0402-1.1982 1.8319-2.597 2.7129-3.9199 0.61018-0.91621 1.7812-3.6841 1.7812-2.7812l8.9453 0.2207s3.0306 10.438 5.3106 15.34c2.5745 5.5352 5.5493 10.973 9.3672 15.713 4.8285 5.9946 10.537 11.368 16.836 15.74 5.26 3.6514 10.889 6.6787 17.172 8.5352 6.144 1.8153 13.987 3.2196 21.186 3.6093 6.0328 0.3265 12.621-0.8999 18.836-2.0273 4.1878-0.7597 8.4523-1.5007 12.371-3.1797 6.4739-2.7737 12.537-6.6678 17.961-11.199 4.3352-3.6217 8.0309-8.0232 11.408-12.574 2.9261-3.9429 5.4671-8.2062 7.5859-12.648 0.84209-1.7655 1.8403-3.5626 2.0156-5.5156 0.12534-1.3963-0.0602-2.9096-0.71484-4.1445-0.52944-0.99876-1.6187-1.7378-2.4375-2.3359-4.6139-3.3702-17.676-8.0946-13.787-8.0781 4.0547 0.0172 7.7613 0.36486 11.555-0.41407 1.154-0.23696 3.0332-1.834 3.0332-1.834 1.4721-1.7046 2.8098-2.8788 3.9688-4.6758 1.1293-1.7511 0.90465-3.7909 0.91992-5.7246 0.051-6.4636-1.3092-12.896-2.7715-19.188-0.91122-3.9204-2.0967-7.8018-3.7188-11.479-2.0686-4.6889-4.6054-9.2037-7.6016-13.346-2.103-2.9074-4.9308-5.3408-7.209-7.9727-3.9194-4.5278-9.3753-7.7759-14.648-10.727-4.5218-2.5302-9.3902-4.4885-14.371-5.873-4.7396-1.3175-9.671-1.8989-14.572-2.2637-2.756-0.20513-8.291 0.0469-8.291 0.0469-2.8216 1.072 5.1263-2.9495 7.8789-3.9805 2.5536-0.9564 7.9219-2.0117 7.9219-2.0117 0.64716-0.16182 1.7617-0.15184 2.4238-0.0742 0 0 4.4651 1.855 6.7832 2.5156 2.053 0.58505 4.1588 0.99128 6.2734 1.2715 1.9713 0.26121 3.9733 0.56071 5.9531 0.37696 2.7157-0.25205 5.3965-1.0078 7.9375-2.0117 2.4992-0.98738 5.0514-2.1057 7.0684-3.8984 1.2081-1.0737 2.1541-2.4752 2.8379-3.9492 0.79142-1.7061 1.4264-3.5957 1.3789-5.4805-0.0641-2.5446-0.85365-4.921-2.2324-7.293-0.2688-0.46242-1.0026-0.46919-0.99219-1.0059 0 0 2.3586-2.4079 3.0996-3.8984 0.88461-1.7793 1.4672-3.7927 1.4883-5.7852 0.0191-1.8095-0.616-3.5859-1.2402-5.2812-0.37509-1.0187-0.78462-2.0701-1.4883-2.8906-0.7-0.81628-1.6701-1.363-2.6035-1.8867-0.66497-0.3731-2.1494-0.30013-2.1074-0.88086 0.20003-2.7637-0.6211-5.7832-0.6211-5.7832-0.45031-1.0448-1.1114-2.3454-1.9844-3.2695-1.1737-1.2426-2.6526-2.2257-4.2168-2.8926-1.9057-0.81249-4.0093-1.3036-6.0762-1.2578zm-30.346 95.533c1.0534-0.0153 2.1058 8.2e-4 3.1543 0.0918 1.7141 0.14873 3.4339 0.40197 5.0859 0.88867 2.1894 0.64501 4.2586 1.6685 6.3144 2.668 1.321 0.6422 2.6475 1.2953 3.8574 2.1328 1.5764 1.0912 3.0513 2.3496 4.3848 3.7344 0.52302 0.54315 0.94063 1.1833 1.4043 1.7793 0.82564 1.0613 2.4551 3.2012 2.4551 3.2012s-2.9362-0.0276-4.3848 0.17773c-1.966 0.27869-3.8686 0.90481-5.7871 1.4219-2.2351 0.60241-4.4865 1.1728-6.666 1.957-1.5554 0.55966-3.0464 1.2846-4.5586 1.9551-1.822 0.8078-3.6271 1.6562-5.4375 2.4902-2.0483 0.94367-4.0815 1.9221-6.1387 2.8457-0.81421 0.36555-1.5651 1.0372-2.4551 1.0664-9.2704 0.30394-16.139 1.1966-26.658 1.5996 0 0 2.8732-6.8387 4.5606-10.135 1.2795-2.4995 2.4192-5.1376 4.209-7.291 1.8715-2.2518 4.2798-4.0099 6.6641-5.6914 1.6549-1.1671 3.3958-2.25 5.2617-3.0234 1.6801-0.69644 3.4692-1.1322 5.2617-1.4219 2.0816-0.33638 4.2074-0.29618 6.3144-0.35547 1.0519-0.0296 2.1048-0.0764 3.1582-0.0918zm34.549 46.854s-1.1183 2.0152-1.6973 3.0117c-0.78414 1.3496-1.5474 2.7143-2.4043 4.0176-1.1983 1.8224-2.5204 3.5574-3.8203 5.3066-0.97073 1.3063-2.101 2.731-3.2539 3.875-1.6381 1.6254-3.2766 2.9518-5.2344 4.1602-1.9277 1.1899-4.0189 2.0889-6.084 3.0117-1.763 0.7879-3.5071 1.6817-5.377 2.1523-2.4868 0.626-5.0776 0.77948-7.6387 0.85938-2.8789 0.09-5.7841 0.0147-8.6309-0.42969-2.0237-0.3157-4.0304-0.83272-5.9414-1.5781-1.3387-0.5222-2.5899-1.2605-3.8203-2.0078-1.7169-1.0429-3.4137-2.1466-4.9531-3.4434-1.2825-1.0804-2.4619-2.292-3.5352-3.5859-1.0022-1.2081-1.6617-2.2871-2.5469-3.5859-0.90723-1.3311-2.1975-3.0329-2.9726-4.4473-0.45122-0.82332-0.66336-1.5578-0.99024-2.4394-0.50387-1.3591-1.2734-4.1602-1.2734-4.1602 18.452-9e-3 47.191-0.52732 70.174-0.71679z"
         fill="red" fill-rule="evenodd"/>
   <path id="esquadron" d="m174.27 830.66c-1.5087 0.0816-3.0371 0.66375-4.4648 1.1738-2.5171 0.89926-4.7567 2.4712-7.0156 3.9121-1.7027 1.0861-3.4917 2.1104-4.9102 3.5566-1.7156 1.7492-2.9228 3.9528-4.209 6.0469-0.77448 1.2609-1.3476 2.6408-2.1055 3.9121-0.21807 0.36582-0.37241 0.79884-0.70117 1.0664-2.396 1.95-5.7328 2.2431-8.5938 3.3789-2.5171 0.9993-5.0292 2.0106-7.541 3.0234-1.7552 0.70775-3.5653 1.2905-5.2617 2.1328-3.5299 1.7526-6.8941 3.8477-10.172 6.0469-4.2514 2.8524-8.4185 5.8683-12.277 9.2461-2.6285 2.3008-5.041 4.8549-7.3652 7.4707-3.728 4.1955-7.3572 8.5124-10.523 13.158-2.7703 4.0648-5.2559 8.3515-7.3672 12.805-1.9003 4.0082-3.3499 8.2273-4.7344 12.447-1.2269 3.7394-2.3094 7.5347-3.1562 11.381-0.69736 3.1671-1.1299 6.3907-1.5801 9.6035-0.28152 2.0091-0.60966 4.0178-0.70117 6.0449-0.10427 2.3101 0.17578 6.9355 0.17578 6.9355-0.43432 0.66221-5.0859 0.17774-5.0859 0.17774l-12.453 0.17773c0.0594-4.3384-0.70117 7.291-0.70117 7.291 6.5244 0.28511 11.454 0.34664 18.064 0.35742 0.52289 9.9e-4 1.3818 0.18125 1.4043 0.71094 0 0 1.3459 6.6833 2.2793 9.957 0.79074 2.7734 1.6323 5.5516 2.8066 8.1816 1.6629 3.724 3.7409 7.2589 5.9629 10.67 1.5401 2.3644 3.1988 4.6679 5.0859 6.7578 2.459 2.7233 5.2738 5.0991 8.0664 7.4687 2.6543 2.2523 5.273 4.6005 8.2441 6.4004 3.9084 2.3676 8.1192 4.2713 12.451 5.6915 4.7128 1.5451 9.6289 2.517 14.557 3.0234 4.3041 0.4424 8.6605 0.2679 12.979 0 3.351-0.2078 6.7217-0.503 9.998-1.2461 4.7448-1.0762 9.464-2.5069 13.855-4.623 3.1345-1.5103 5.9625-3.6177 8.7676-5.6895 2.4504-1.8098 4.8764-3.6911 7.0156-5.8691 2.3453-2.3877 4.27-5.1674 6.3144-7.8243 1.7477-2.2713 3.5655-4.5019 5.0859-6.9355 1.0637-1.7026 2.8066-5.3359 2.8066-5.3359 0.12999-0.4556 1.8247-2.64 1.4023-2.8438-7.8268-3.7746-12.705-6.5444-18.59-9.959 0 0-2.6425 5.3135-4.209 7.8242-1.7005 2.7254-3.4558 5.4546-5.6133 7.8242-2.1936 2.4093-4.7138 4.5252-7.3652 6.4024-2.7468 1.9448-5.6217 3.8158-8.7695 4.9785-4.697 1.735-9.7397 2.5918-14.732 2.8457-3.9858 0.2027-8.0652-0.041-11.926-1.0664-3.8474-1.0215-7.4346-2.9541-10.873-4.9805-2.7499-1.6206-5.4372-3.4424-7.7188-5.6894-2.3318-2.2966-4.234-5.0329-5.9629-7.8242-1.8076-2.9184-3.3598-6.0233-4.5586-9.248-0.81027-2.1795-1.2863-4.4774-1.7539-6.7578-0.31304-1.5267-0.70117-4.623-0.70117-4.623 27.57-0.0792 67.018-0.3486 101.37-0.35547 1.6535-3.3e-4 3.5078-3.5566 3.5078-3.5566s0.25346-5.2288 0-7.8242c-0.29374-3.0078-1.069-5.9509-1.7539-8.8926-0.61258-2.6311-1.2209-5.2739-2.1055-7.8242-0.9729-2.8049-2.2-5.5185-3.5078-8.1797-1.3777-2.8034-2.8205-5.5918-4.5605-8.1797-1.3578-2.0194-2.9777-3.8465-4.5586-5.6914-1.4651-1.7097-2.879-3.4875-4.5605-4.9785-1.8315-1.624-3.9027-2.9553-5.9629-4.2676-2.0387-1.2985-4.16-2.4671-6.3145-3.5566-3.0914-1.5634-6.2145-3.0974-9.4707-4.2676-2.9674-1.0664-6.0171-1.9457-9.1191-2.4902-2.8894-0.50717-5.8372-0.70218-8.7695-0.71094-3.1655-9e-3 -6.3273 0.33201-9.4707 0.71094-3.9416 0.47514-7.9216 0.89237-11.75 1.9551-3.5706 0.99116-7.0552 2.3758-10.348 4.0918-2.8554 1.4882-7.5e-4 -9e-4 -8.0684 5.334-3.1975 2.1144 4.6008-6.2234 7.3672-8.8906 3.5079-3.3822 7.6615-6.0028 11.574-8.8926 2.3072-1.704 4.5515-3.5176 7.0156-4.9785 2.799-1.6595 5.7689-3.022 8.7695-4.2676 2.1729-0.90196 4.4238-1.6 6.6641-2.3125 2.0304-0.6458 4.0594-1.3204 6.1387-1.7793 1.9066-0.42082 3.8523-1.1449 5.7871-0.88868 2.9077 0.38508 5.247 2.7464 8.0684 3.5566 1.5909 0.45691 3.266 0.53255 4.9102 0.71094 1.6318 0.17705 3.2758 0.50534 4.9102 0.35547 2.1041-0.19295 4.1791-0.79893 6.1387-1.5996 1.4326-0.58535 2.9356-1.2127 4.0352-2.3125 1.1564-1.1566 2.2634-2.6321 2.4551-4.2676 0.14408-1.2291-0.42677-2.494-1.0527-3.5566-0.50874-0.86363-1.2524-1.6193-2.1055-2.1328-1.7816-1.0724-5.9629-1.7793-5.9629-1.7793s5.3667-3.7331 9.1211-7.1133c0.91279-0.82182 1.0938-2.3196 1.0527-3.5566-0.0336-1.0124-0.51191-1.9941-1.0527-2.8457-0.4476-0.70482-1.0039-1.4246-1.7539-1.7774-0.63862-0.30032-1.4015-0.18363-2.1055-0.17773-0.5875 5e-3 -1.1751 0.0756-1.7539 0.17773-2.3747 0.41908-7.0156 1.7774-7.0156 1.7774s4.1274-2.8351 5.2617-4.9785c0.67257-1.2708 0.75793-2.8265 0.70117-4.2676-0.0385-0.97683-0.14577-2.0466-0.70117-2.8457-0.72853-1.0482-1.9185-1.8697-3.1562-2.1328-0.49386-0.10499-0.99514-0.13464-1.498-0.10742zm-32.732 80.029c2.5922 0.0249 5.1682 0.25961 7.7617 0.71289 2.2409 0.39167 4.557 1.093 6.666 1.9551 2.231 0.91192 4.4691 1.8757 6.4883 3.2012 3.9019 2.5614 7.7002 5.4693 10.699 9.0703 1.572 1.8875 2.543 4.2182 3.6816 6.4023 1.2709 2.4379 3.5078 7.4688 3.5078 7.4688-6.3756-0.35001-9.6094-0.12879-15.434-0.17773-1.4904-0.0125-2.9533 0.4677-4.3848 0.88867-3.1282 0.91992-6.1349 2.2335-9.1192 3.5566-3.7609 1.6675-7.2097 4.0387-11.049 5.5117-2.4937 0.95681-5.0897 1.6734-7.7168 2.1348-2.2532 0.39573-4.5534 0.56766-6.8398 0.53321-8.5271-0.12846-14.814 0.29471-26.658 0.35546 0 0 0.62653-5.0192 1.2266-7.4688 0.66845-2.7288 1.4968-5.4361 2.6309-8.002 1.6815-3.8042 3.6402-7.5369 6.1387-10.848 2.3111-3.0625 4.9831-5.925 8.0684-8.1797 2.9693-2.17 6.3562-3.7821 9.8203-4.9805 3.1576-1.0924 6.4974-1.6743 9.8223-1.9551 1.5736-0.13289 3.1341-0.1946 4.6895-0.17969z"
         fill="#008fc6" fill-rule="evenodd" stroke="#008ec6" stroke-width=".49449px"/>
   <g transform="matrix(.49107 0 0 .49792 -62.641 663.13)">
    <ellipse cx="190.16" cy="586.18" rx="48.74" ry="49.497" fill="#fff"/>
    <ellipse id="ojo" cx="198.98" cy="570.56" rx="21.213" ry="21.718"/>
   </g>
  </g>
 </g>
 <style>
   path{
     opacity:0.3;
   }
   ellipse{
     opacity: 0.3;
   }

 </style>
</svg>
