<?xml version="1.0" encoding="UTF-8"?>
<!-- Created with Inkscape (http://www.inkscape.org/) -->
<svg width="139.84mm" height="139.84mm" version="1.1" viewBox="0 0 139.84 139.84" xmlns="http://www.w3.org/2000/svg">
 <g transform="translate(-22.819 -49.376)">
  <rect x="23.97" y="50.374" width="138.1" height="138.23" ry="0" fill="#2c89a0"/>
  <g transform="translate(-6.8418e-7 2.8408e-6)">
   <g transform="translate(61.912 13.229)">
    <path d="m-14.26 140.25c12.035-11.392 63.708-17.619 91.013-1.0583 8.2345 4.9942 5.1347 36.139 5.1594 36.139h-100.41c-0.11395-15.804-0.67013-30.439 4.2333-35.08z" fill="#916f6f"/>
    <g transform="translate(101.7 -24.381)">
     <path d="m-82.337 150.7 24.487 0.11691 10.035 8.9957-12.091 10.957-5.2722-1.356-5.0845 9.6158-5.2828-9.6394-5.0468 1.3108-12.146-10.868z" fill="#fff"/>
     <path d="m-80.43 141.93 20.342-0.0375c-1.8972 4.2962-0.95013 7.3292 0.27359 12.013-2.8338 6.263-10.556 21.285-10.556 21.285s-8.2919-16.376-10.608-21.058c1.6715-4.5326 1.6659-8.1773 0.54895-12.203z" fill="#e2a379"/>
    </g>
    <g fill="#a02c2c">
     <path transform="matrix(.81037 .017239 -.017239 .81037 75.375 18.382)" d="m-45.281 169.19-10.818 0.29623-3.6246-10.197 8.5775-6.5981 8.9257 6.1188z"/>
     <rect x="27.172" y="153.78" width="8.4603" height="21.483" ry=".56056"/>
    </g>
   </g>
   <g transform="translate(1.0627 -.43542)">
    <path d="m120.32 106.25c-3.0267 14.629-4.4909 9.1959-5.5389 10.279-1.0647 1.1003-3.6779 8.9044-7.2212 11.445-3.7895 2.7172-9.0041 7.9196-14.69 8.0664-7.2329 0.18679-11.461-5.4747-16.269-9.5484-3.7563-3.1823-5.4804-10.076-6.1465-9.9141-3.1236 0.75703-4.7138-4.7819-5.6483-10.923-0.73895-4.8561 3.1704-5.6836 3.1705-5.7835 8e-3 -6.7952 0.31838-15.738 3.0197-22.454 3.8404-9.5476 14.687-11.647 22.147-11.123 6.6457 0.46607 16.04 2.1189 20.574 9.9998 5.0505 8.7787 2.8993 23.052 4.1813 23.536 1.7618 0.66622 3.3895 1.7425 2.4218 6.4198z" fill="#ffb380"/>
    <path d="m68.069 99.804h2.4533l1.2266 8.9953 1.4992 0.40888s-0.50398-9.7359-0.13629-14.583c0.1288-1.698 0.81776-5.0428 0.81776-5.0428s1.5246 0.7731 2.317 1.0903c1.3337 0.53395 2.682 1.0715 4.0888 1.3629 2.0541 0.42547 4.1728 0.61035 6.2695 0.54517 2.755-0.08564 5.5252-0.47655 8.1776-1.2266 2.233-0.63149 4.4157-1.5323 6.4058-2.7259 1.8011-1.0802 4.9066-3.9525 4.9066-3.9525s0.66625 2.563 1.0903 3.8162c0.43811 1.2946 0.87961 2.598 1.4992 3.8162 0.53709 1.056 1.1668 2.0743 1.9081 2.9984 0.52263 0.65152 1.7718 1.7718 1.7718 1.7718v11.585l1.7718 0.54518 0.81776-10.086h2.5896s-0.15908-3.9991-0.27258-5.9969c-0.11364-2.0004-0.16629-4.008-0.40888-5.9969-0.18991-1.557-0.45012-3.1091-0.81776-4.634-0.28967-1.2014-0.6307-2.3964-1.0903-3.5436-0.45338-1.1316-0.96828-2.2508-1.6355-3.271-0.97107-1.4848-2.0664-2.9272-3.4073-4.0888-1.0483-0.90811-2.303-1.5607-3.5436-2.1807-1.4414-0.72036-2.953-1.3129-4.4977-1.7718-1.7338-0.51512-3.5246-0.83696-5.3154-1.0903-1.7147-0.2426-3.4474-0.41072-5.1791-0.40888-1.6865 0.0018-3.377 0.14564-5.0428 0.40888-1.7524 0.27692-3.5062 0.6361-5.1791 1.2266-1.0922 0.38554-2.1361 0.91248-3.1347 1.4992-1.152 0.67686-2.3053 1.3935-3.271 2.317-1.1231 1.074-2.098 2.3268-2.8622 3.6799-0.93353 1.6529-1.5224 3.4903-2.0444 5.3154-0.66155 2.313-1.0585 4.7009-1.3629 7.0872-0.27072 2.1224-0.3407 4.2673-0.40888 6.4058-0.0608 1.9071 0 5.7243 0 5.7243z" fill="#520"/>
    <g stroke="#000101">
     <g transform="translate(162.29 28.912)">
      <path transform="matrix(.26458 0 0 .26458 22.819 49.376)" d="m-409.18 75.971c-3.5568 0-6.4199 2.8631-6.4199 6.4199v23.555c0 3.5568 2.8631 6.4199 6.4199 6.4199h44.855c3.5568 0 6.4219-2.8631 6.4219-6.4199v-23.555c0-3.5568-2.865-6.4199-6.4219-6.4199zm4.0879 5.7812h36.74c2.2934 0 4.1387 1.8473 4.1387 4.1406v17.35c0 2.2933-1.8453 4.1387-4.1387 4.1387h-36.74c-2.2933 0-4.1406-1.8453-4.1406-4.1387v-17.35c0-2.2933 1.8473-4.1406 4.1406-4.1406z" stroke="#000101" stroke-width=".99756"/>
     </g>
     <g transform="translate(181.93 28.763)">
      <path transform="matrix(.26458 0 0 .26458 22.819 49.376)" d="m-409.18 75.971c-3.5568 0-6.4199 2.8631-6.4199 6.4199v23.555c0 3.5568 2.8631 6.4199 6.4199 6.4199h44.855c3.5568 0 6.4219-2.8631 6.4219-6.4199v-23.555c0-3.5568-2.865-6.4199-6.4219-6.4199zm4.0879 5.7812h36.74c2.2934 0 4.1387 1.8473 4.1387 4.1406v17.35c0 2.2933-1.8453 4.1387-4.1387 4.1387h-36.74c-2.2933 0-4.1406-1.8453-4.1406-4.1387v-17.35c0-2.2933 1.8473-4.1406 4.1406-4.1406z" stroke="#000101" stroke-width=".99756"/>
     </g>
     <g>
      <rect x="88.842" y="102.41" width="7.2872" height="1.385" ry="0" stroke-width=".072633"/>
      <rect x="108.77" y="100.21" width="3.6511" height="1.1385" ry="0" stroke-width=".046612"/>
      <rect x="72.944" y="100.5" width="3.6511" height="1.1385" ry="0" stroke-width=".046612"/>
     </g>
    </g>
    <g transform="translate(101.19 -1.542)">
     <path d="m-0.79222 123.15c-0.75183 0.37592-3.1415 3.1249-7.469 3.214-3.9425 0.0811-6.5101-2.2653-7.5171-3.2622-9e-6 -1.1342 2.2701-2.0254 4.5361-2.4699 1.8124 1.378 3.8794 1.0787 5.4341-0.0559 2.4438 0.43395 5.016 1.3865 5.016 2.574z" fill="#e5a173"/>
     <path d="m-15.778 123.1 14.986 0.0482" fill="none"/>
    </g>
   </g>
  </g>
 </g>
</svg>
